<?xml version="1.0" ?><!DOCTYPE svg  PUBLIC '-//W3C//DTD SVG 1.1//EN'  'http://www.w3.org/Graphics/SVG/1.1/DTD/svg11.dtd'><svg height="512px" id="Layer_1" style="enable-background:new 0 0 512 512;" version="1.1" viewBox="0 0 512 512" width="512px" xml:space="preserve" xmlns="http://www.w3.org/2000/svg" xmlns:xlink="http://www.w3.org/1999/xlink"><g id="Layer_1_1_"><circle cx="253.119" cy="267.092" r="243" style="fill:#26A5D0;"/></g><g id="Layer_2"><g id="Favorite"/><g><g><path d="M446.755,323.313c0,6.432-0.372,20.763-1.207,33.695c-0.53,8.17-1.253,15.787-2.166,20.492     l-19.928-3.893c1.038-5.304,1.862-16.881,2.37-28.109c0.395-8.587,0.621-16.983,0.621-22.185     c0-71.068-22.749-190.287-175.143-190.287c-23.72,0-45.081,2.629-64.038,7.854c-33.244,9.152-59.085,26.292-77.196,51.287     c-22.501,31.077-33.92,75.21-33.92,131.146c0,13.428,1.67,35.32,4.875,51.186l-19.917,4.017     c-3.622-17.976-5.27-41.21-5.27-55.203c0-60.315,12.717-108.442,37.791-143.051c21.948-30.31,53.307-50.508,93.637-60.416     c19.307-4.751,40.68-7.132,64.038-7.132c68.969,0,120.967,22.67,154.55,67.401C432.616,215.751,446.755,265.267,446.755,323.313z     " style="fill:#B2B2B2;"/></g><path d="M187.262,119.846v21.034    c-33.244,9.152-59.085,26.292-77.196,51.287c-22.501,31.077-33.92,75.21-33.92,131.146c0,13.428,1.67,35.32,4.875,51.186    l-19.917,4.017c-3.622-17.976-5.27-41.21-5.27-55.203c0-60.315,12.717-108.442,37.791-143.051    C115.573,149.952,146.932,129.754,187.262,119.846z" style="opacity:0.5;fill:#B2B2B2;adobe-blending-mode:multiply;enable-background:new    ;"/><g><path d="M251.3,112.714     c1.072,0,2.155,0,3.216,0.011c-22.128,0.214-42.429,2.584-60.856,7.12c-40.33,9.908-71.689,30.106-93.637,60.416     c-25.074,34.609-37.791,82.736-37.791,143.051c0,13.677,1.568,36.177,5.021,53.961l-6.15,1.241     c-3.622-17.976-5.27-41.21-5.27-55.203c0-60.315,12.717-108.442,37.791-143.051c21.948-30.31,53.307-50.508,93.637-60.416     C206.569,115.095,227.941,112.714,251.3,112.714z" style="opacity:0.5;fill:#B2B2B2;adobe-blending-mode:multiply;enable-background:new    ;"/><path d="M443.595,376.293     c-0.068,0.418-0.135,0.824-0.214,1.207l-19.928-3.893c1.828-9.366,2.99-38.288,2.99-50.294     c0-70.515-22.399-188.425-171.6-190.264c0.948-0.023,1.896-0.023,2.855-0.023c152.394,0,175.143,119.218,175.143,190.287     c0,12.006-1.162,40.928-2.99,50.294L443.595,376.293z" style="opacity:0.5;fill:#B2B2B2;adobe-blending-mode:multiply;enable-background:new    ;"/></g><path d="M187.262,119.846v21.034    c-33.244,9.152-59.085,26.292-77.196,51.287c-22.501,31.077-33.92,75.21-33.92,131.146c0,6.827,0.429,15.843,1.275,25.141    c0.824,8.994,2.02,18.247,3.6,26.044l-19.917,4.017c-1.219-6.094-2.223-12.796-3.013-19.533    c-1.535-13.135-2.257-26.417-2.257-35.67c0-60.315,12.717-108.442,37.791-143.051    C115.573,149.952,146.932,129.754,187.262,119.846z" style="opacity:0.5;fill:#B2B2B2;adobe-blending-mode:multiply;enable-background:new    ;"/><g><path d="M254.787,133.049     c-22.557,0.203-42.948,2.821-61.127,7.831v-1.636c17.321-4.141,36.55-6.218,57.64-6.218     C252.473,133.026,253.636,133.037,254.787,133.049z" style="opacity:0.5;fill:#B2B2B2;adobe-blending-mode:multiply;enable-background:new    ;"/></g><g><path d="M424.681,246.403c-12.511,4.054-26.032-2.523-30.199-14.684     c-14.671-42.828-43.242-70.654-85.236-83.174c-17.112-5.109-36.449-7.674-57.978-7.674c-78.237,0-125.494,29.526-144.484,90.258     c-3.125,10.029-12.587,16.479-22.831,16.479c-2.3,0-4.633-0.327-6.956-1.013c-12.609-3.726-19.728-16.7-15.886-28.978     c11.73-37.518,32.261-67.023,61.027-87.693c32.771-23.551,76.219-35.501,129.129-35.501c36.004,0,67.82,6.059,95.024,18.073     c10.971,4.835,21.192,10.641,30.633,17.397c29.016,20.786,50.165,50.101,62.85,87.133     C443.942,229.196,437.182,242.35,424.681,246.403z" style="fill:#CBCBCB;"/></g><g style="adobe-blending-mode:multiply;"><path d="M319.297,102.939c-17.253-3.674-35.852-5.521-55.721-5.521     c-52.91,0-96.358,11.95-129.129,35.501c-28.766,20.67-49.297,50.175-61.027,87.693c-3.32,10.62,1.552,21.757,11.09,26.982     c-0.185,0.011-0.369,0.011-0.553,0.011c-2.3,0-4.633-0.327-6.956-1.013c-12.609-3.726-19.727-16.7-15.886-28.978     c11.73-37.518,32.261-67.023,61.027-87.693c32.77-23.551,76.218-35.501,129.129-35.501     C275.968,94.42,298.69,97.27,319.297,102.939z" style="fill:#CBCBCB;adobe-blending-mode:normal;"/><path d="M417.695,247.584c-10.211,0.243-19.814-5.954-23.211-15.866     c-14.671-42.828-43.242-70.654-85.236-83.174c-0.64-0.19-1.291-0.38-1.942-0.56c4.916,1.003,9.658,2.185,14.248,3.558     c41.994,12.52,70.565,40.347,85.236,83.174C408.732,240.395,412.725,244.85,417.695,247.584z" style="fill:#CBCBCB;adobe-blending-mode:normal;"/></g><path d="M81.02,374.499l-19.917,4.017    c-1.219-6.094-2.223-12.796-3.013-19.533c3.024-2.731,6.364-5.055,9.987-6.929c0.971-0.508,1.952-0.97,2.968-1.411    c2.054-0.88,4.175-1.625,6.376-2.189C78.244,357.448,79.44,366.701,81.02,374.499z" style="opacity:0.5;fill:#B2B2B2;adobe-blending-mode:multiply;enable-background:new    ;"/><path d="M122.569,475.166c-0.903,0.609-1.839,1.196-2.787,1.738c-0.711,0.417-1.444,0.801-2.189,1.173    c-3.126,1.591-6.466,2.832-9.987,3.679c-2.607,0.632-5.225,1.027-7.831,1.196c-1.061,0.068-2.122,0.102-3.171,0.102    c-24.837-0.09-48.308-20.131-55.327-49.2c-0.056-0.214-0.102-0.429-0.147-0.643c-6.703-28.854,5.044-57.031,26.947-68.36    c0.971-0.508,1.952-0.97,2.968-1.411c2.37-1.016,4.841-1.851,7.414-2.471c3.521-0.846,7.053-1.264,10.562-1.287    c0.835,0,1.67,0.011,2.494,0.056c1.095,0.056,2.178,0.147,3.261,0.271c22.354,2.629,42.677,21.124,49.617,47.27    c0.147,0.519,0.282,1.061,0.406,1.591C151.31,435.862,141.639,462.38,122.569,475.166z" style="fill:#DA5C86;"/><path d="M145.905,414.456    c-2.652,16.114-11.036,30.073-23.336,38.321c-1.591,1.072-3.25,2.054-4.976,2.911c-0.858,0.437-1.736,0.841-2.626,1.225    l-1.086-4.508l-8.723-36.076l-13.586-56.32l-0.056-0.271c-0.824-0.045-1.659-0.056-2.494-0.056    c-3.51,0.023-7.041,0.44-10.562,1.287c-2.573,0.621-5.044,1.456-7.414,2.471c-1.016,0.44-1.997,0.903-2.968,1.411    c0.011,0.09,0.034,0.192,0.056,0.282l13.778,57.042l8.7,36.042l0.503,2.086c-22.736-2.763-43.343-21.915-49.838-48.837    c-0.056-0.214-0.102-0.429-0.147-0.643c-0.384-1.659-0.711-3.318-0.971-4.965c-1.433,8.678-1.207,17.976,0.971,27.353    c0.045,0.214,0.09,0.429,0.147,0.643c7.014,29.073,30.485,49.089,55.323,49.182l0.004,0.018c0.128,0,0.259-0.011,0.387-0.012    c0.926-0.004,1.854-0.029,2.784-0.089c2.607-0.169,5.224-0.564,7.831-1.196c3.521-0.846,6.861-2.088,9.987-3.679    c0.745-0.372,1.478-0.756,2.189-1.173l-0.003-0.011c0.95-0.546,1.884-1.117,2.79-1.727    C140.319,463.261,149.933,439.462,145.905,414.456z" style="opacity:0.5;fill:#DA5C86;adobe-blending-mode:multiply;enable-background:new    ;"/><path d="M120.605,489.553c-0.655,0.654-1.411,1.207-2.234,1.614c-0.564,0.293-1.174,0.519-1.806,0.666    l-4.367,1.061c-5.236,1.264-10.664-2.663-12.142-8.768l-0.282-1.174l-5.969-24.735l-8.7-36.042l-13.767-57.042    c-0.135-0.564-0.237-1.128-0.293-1.693c-0.587-5.473,2.358-10.494,7.109-11.645l4.367-1.061c0.361-0.09,0.722-0.147,1.095-0.192    c1.106-0.113,2.212,0,3.272,0.293c3.611,1.016,6.703,4.277,7.764,8.666l0.124,0.508l13.586,56.32l8.712,36.076l5.495,22.76    l0.801,3.329C124.408,482.782,123.212,486.991,120.605,489.553z" style="fill:#CBCBCB;"/><path d="M119.623,490.392    c0.345-0.257,0.677-0.533,0.983-0.839c2.607-2.562,3.803-6.771,2.765-11.059l-0.801-3.329l-5.495-22.76l-8.712-36.076    l-13.586-56.32l-0.124-0.508c-1.061-4.39-4.153-7.651-7.764-8.666c-1.061-0.293-2.167-0.406-3.272-0.293    c0.011,0.011,0.011,0.022,0.011,0.034l0.068,0.259l2.133,8.847l13.981,57.99l7.978,33.063l0.91,3.762l-14.891,3.719l5.969,24.735    l0.282,1.174c1.478,6.105,6.906,10.032,12.142,8.768l4.367-1.061c0.634-0.152,1.23-0.391,1.798-0.677    c0.003,0.004,0.005,0.008,0.007,0.011c0.041-0.02,0.077-0.05,0.118-0.071c0.288-0.151,0.563-0.32,0.831-0.503    C119.421,490.525,119.525,490.465,119.623,490.392z" style="fill:#CBCBCB;adobe-blending-mode:multiply;enable-background:new    ;"/><g><path d="M164.845,491.201l-31.483,4.062c-3.848,0.485-7.752-1.952-9.558-5.71     c-0.327-0.666-0.576-1.377-0.756-2.121l-2.257-9.355l-6.601-27.342l-7.978-33.063l-13.992-57.99l-2.133-8.847l-0.068-0.259     c-1.185-4.909,1.309-10.122,5.608-11.679l29.869-10.743c4.751-1.704,9.659,1.128,10.923,6.364l17.197,71.249l8.046,33.368     l9.998,41.425C172.925,485.784,169.844,490.557,164.845,491.201z" style="fill:#4D4D4D;"/><path d="M164.845,491.201l-31.483,4.062     c-3.848,0.485-7.752-1.952-9.558-5.71c-0.327-0.666-0.576-1.377-0.756-2.121l-2.257-9.355l-6.601-27.342l-7.978-33.063     l-13.992-57.99l-2.133-8.847l-0.068-0.259c-1.185-4.909,1.309-10.122,5.608-11.679l29.869-10.743     c4.751-1.704,9.659,1.128,10.923,6.364l17.197,71.249l8.046,33.368l9.998,41.425     C172.925,485.784,169.844,490.557,164.845,491.201z" style="fill:#4D4D4D;adobe-blending-mode:multiply;enable-background:new    ;"/></g><path d="M161.646,491.201l-31.483,4.062c-3.848,0.485-7.752-1.952-9.558-5.71    c-0.327-0.666-0.576-1.377-0.756-2.121l-2.257-9.355l-6.601-27.342l-7.978-33.063l-13.992-57.99l-2.133-8.847l-0.068-0.259    c-1.185-4.909,1.309-10.122,5.608-11.679l29.869-10.743c4.751-1.704,9.659,1.128,10.923,6.364l17.197,71.249l8.046,33.368    l9.998,41.425C169.726,485.784,166.645,490.557,161.646,491.201z" style="fill:#4D4D4D;"/><path d="M161.646,491.201l-31.483,4.062    c-3.848,0.485-7.752-1.952-9.558-5.71c-0.327-0.666-0.576-1.377-0.756-2.121l-2.257-9.355l-6.601-27.342l47.473-11.6l9.998,41.425    C169.726,485.784,166.645,490.557,161.646,491.201z" style="fill:#4D4D4D;adobe-blending-mode:multiply;enable-background:new    ;"/><path d="M445.547,357.008    c-0.53,8.17-1.253,15.787-2.166,20.492l-19.928-3.893c1.038-5.304,1.862-16.881,2.37-28.109c1.873,0.53,3.69,1.185,5.45,1.941    c1.015,0.451,1.997,0.914,2.968,1.411C438.393,350.993,442.185,353.758,445.547,357.008z" style="opacity:0.5;fill:#B2B2B2;adobe-blending-mode:multiply;enable-background:new    ;"/><path d="M379.744,475.166c0.903,0.609,1.839,1.196,2.787,1.738c0.711,0.417,1.444,0.801,2.189,1.173    c3.126,1.591,6.466,2.832,9.987,3.679c2.607,0.632,5.225,1.027,7.831,1.196c1.061,0.068,2.122,0.102,3.171,0.102    c24.837-0.09,48.308-20.131,55.327-49.2c0.056-0.214,0.102-0.429,0.147-0.643c6.703-28.854-5.044-57.031-26.947-68.36    c-0.971-0.508-1.952-0.97-2.968-1.411c-2.37-1.016-4.841-1.851-7.414-2.471c-3.521-0.846-7.053-1.264-10.562-1.287    c-0.835,0-1.67,0.011-2.494,0.056c-1.095,0.056-2.178,0.147-3.261,0.271c-22.354,2.629-42.677,21.124-49.617,47.27    c-0.147,0.519-0.282,1.061-0.406,1.591C351.003,435.862,360.674,462.38,379.744,475.166z" style="fill:#DA5C86;"/><path d="M356.408,414.456    c2.652,16.114,11.036,30.073,23.336,38.321c1.591,1.072,3.25,2.054,4.976,2.911c0.858,0.437,1.736,0.841,2.626,1.225l1.086-4.508    l8.723-36.076l13.586-56.32l0.056-0.271c0.824-0.045,1.659-0.056,2.494-0.056c3.51,0.023,7.041,0.44,10.562,1.287    c2.573,0.621,5.044,1.456,7.414,2.471c1.016,0.44,1.997,0.903,2.968,1.411c-0.011,0.09-0.034,0.192-0.056,0.282l-13.778,57.042    l-8.7,36.042l-0.503,2.086c22.736-2.763,43.343-21.915,49.838-48.837c0.056-0.214,0.102-0.429,0.147-0.643    c0.384-1.659,0.711-3.318,0.971-4.965c1.433,8.678,1.207,17.976-0.971,27.353c-0.045,0.214-0.09,0.429-0.147,0.643    c-7.014,29.073-30.485,49.089-55.323,49.182l-0.004,0.018c-0.128,0-0.259-0.011-0.387-0.012c-0.927-0.004-1.854-0.029-2.784-0.089    c-2.607-0.169-5.225-0.564-7.831-1.196c-3.521-0.846-6.861-2.088-9.987-3.679c-0.745-0.372-1.478-0.756-2.189-1.173l0.003-0.011    c-0.95-0.546-1.884-1.117-2.79-1.727C361.994,463.261,352.38,439.462,356.408,414.456z" style="opacity:0.5;fill:#DA5C86;adobe-blending-mode:multiply;enable-background:new    ;"/><path d="M381.708,489.553c0.655,0.654,1.411,1.207,2.234,1.614c0.564,0.293,1.174,0.519,1.806,0.666    l4.367,1.061c5.236,1.264,10.664-2.663,12.142-8.768l0.282-1.174l5.969-24.735l8.7-36.042l13.767-57.042    c0.135-0.564,0.237-1.128,0.293-1.693c0.587-5.473-2.358-10.494-7.109-11.645l-4.367-1.061c-0.361-0.09-0.722-0.147-1.095-0.192    c-1.106-0.113-2.212,0-3.272,0.293c-3.611,1.016-6.703,4.277-7.764,8.666l-0.124,0.508l-13.586,56.32l-8.712,36.076l-5.495,22.76    l-0.801,3.329C377.905,482.782,379.101,486.991,381.708,489.553z" style="fill:#CBCBCB;"/><path d="M382.69,490.392    c-0.345-0.257-0.677-0.533-0.983-0.839c-2.607-2.562-3.803-6.771-2.765-11.059l0.801-3.329l5.495-22.76l8.712-36.076l13.586-56.32    l0.124-0.508c1.061-4.39,4.153-7.651,7.764-8.666c1.061-0.293,2.167-0.406,3.272-0.293c-0.011,0.011-0.011,0.022-0.011,0.034    l-0.068,0.259l-2.133,8.847l-13.981,57.99l-7.978,33.063l-0.91,3.762l14.891,3.719l-5.969,24.735l-0.282,1.174    c-1.478,6.105-6.906,10.032-12.142,8.768l-4.367-1.061c-0.634-0.152-1.23-0.391-1.798-0.677c-0.003,0.004-0.005,0.008-0.007,0.011    c-0.041-0.02-0.077-0.05-0.118-0.071c-0.288-0.151-0.563-0.32-0.831-0.503C382.892,490.525,382.788,490.465,382.69,490.392z" style="fill:#CBCBCB;adobe-blending-mode:multiply;enable-background:new    ;"/><g><path d="M337.468,491.201l31.483,4.062c3.848,0.485,7.752-1.952,9.558-5.71     c0.327-0.666,0.576-1.377,0.756-2.121l2.257-9.355l6.601-27.342l7.978-33.063l13.992-57.99l2.133-8.847l0.068-0.259     c1.185-4.909-1.309-10.122-5.608-11.679l-29.869-10.743c-4.751-1.704-9.659,1.128-10.923,6.364l-17.197,71.249l-8.046,33.368     l-9.998,41.425C329.388,485.784,332.469,490.557,337.468,491.201z" style="fill:#4D4D4D;"/><path d="M337.468,491.201l31.483,4.062     c3.848,0.485,7.752-1.952,9.558-5.71c0.327-0.666,0.576-1.377,0.756-2.121l2.257-9.355l6.601-27.342l7.978-33.063l13.992-57.99     l2.133-8.847l0.068-0.259c1.185-4.909-1.309-10.122-5.608-11.679l-29.869-10.743c-4.751-1.704-9.659,1.128-10.923,6.364     l-17.197,71.249l-8.046,33.368l-9.998,41.425C329.388,485.784,332.469,490.557,337.468,491.201z" style="fill:#4D4D4D;adobe-blending-mode:multiply;enable-background:new    ;"/></g><path d="M340.667,491.201l31.483,4.062c3.848,0.485,7.752-1.952,9.558-5.71    c0.327-0.666,0.576-1.377,0.756-2.121l2.257-9.355l6.601-27.342l7.978-33.063l13.992-57.99l2.133-8.847l0.068-0.259    c1.185-4.909-1.309-10.122-5.608-11.679l-29.869-10.743c-4.751-1.704-9.659,1.128-10.923,6.364l-17.197,71.249l-8.046,33.368    l-9.998,41.425C332.587,485.784,335.668,490.557,340.667,491.201z" style="fill:#4D4D4D;"/><path d="M340.667,491.201l31.483,4.062    c3.848,0.485,7.752-1.952,9.558-5.71c0.327-0.666,0.576-1.377,0.756-2.121l2.257-9.355l6.601-27.342l-47.473-11.6l-9.998,41.425    C332.587,485.784,335.668,490.557,340.667,491.201z" style="fill:#4D4D4D;adobe-blending-mode:multiply;enable-background:new    ;"/></g></g></svg>