<?xml version="1.0" encoding="UTF-8" standalone="no"?> <svg width="64" height="64" viewBox="0 0 64 64" fill="none" xmlns="http://www.w3.org/2000/svg">
<path d="M61 40.6599V37.9299C61 37.6647 60.8946 37.4104 60.7071 37.2228C60.5196 37.0353 60.2652 36.9299 60 36.9299H9.35C5.85 36.9299 3 39.4999 3 42.6699V55.2599C3 58.4199 5.85 60.9999 9.35 60.9999H60C60.2652 60.9999 60.5196 60.8946 60.7071 60.707C60.8946 60.5195 61 60.2651 61 59.9999V57.2699C61 57.0047 60.8946 56.7504 60.7071 56.5628C60.5196 56.3753 60.2652 56.2699 60 56.2699H9.35C8.62 56.2699 8 55.8099 8 55.2699V42.6699C8 42.1199 8.62 41.6699 9.35 41.6699H60C60.1322 41.6699 60.263 41.6437 60.385 41.5929C60.507 41.542 60.6177 41.4674 60.7107 41.3735C60.8037 41.2796 60.8771 41.1682 60.9268 41.0457C60.9764 40.9232 61.0013 40.7921 61 40.6599Z" fill="black"/>
<path d="M56.94 43.6799H12C11.7348 43.6799 11.4804 43.7853 11.2929 43.9728C11.1054 44.1604 11 44.4147 11 44.6799C11 44.9451 11.1054 45.1995 11.2929 45.387C11.4804 45.5746 11.7348 45.6799 12 45.6799H56.94C57.2052 45.6799 57.4596 45.5746 57.6471 45.387C57.8346 45.1995 57.94 44.9451 57.94 44.6799C57.94 44.4147 57.8346 44.1604 57.6471 43.9728C57.4596 43.7853 57.2052 43.6799 56.94 43.6799Z" fill="black"/>
<path d="M56.94 48H12C11.7348 48 11.4804 48.1054 11.2929 48.2929C11.1054 48.4804 11 48.7348 11 49C11 49.2652 11.1054 49.5196 11.2929 49.7071C11.4804 49.8946 11.7348 50 12 50H56.94C57.2052 50 57.4596 49.8946 57.6471 49.7071C57.8346 49.5196 57.94 49.2652 57.94 49C57.94 48.7348 57.8346 48.4804 57.6471 48.2929C57.4596 48.1054 57.2052 48 56.94 48Z" fill="black"/>
<path d="M12 52.25C11.7348 52.25 11.4804 52.3554 11.2929 52.5429C11.1054 52.7304 11 52.9848 11 53.25C11 53.5152 11.1054 53.7696 11.2929 53.9571C11.4804 54.1446 11.7348 54.25 12 54.25H56.94C57.2052 54.25 57.4596 54.1446 57.6471 53.9571C57.8346 53.7696 57.94 53.5152 57.94 53.25C57.94 52.9848 57.8346 52.7304 57.6471 52.5429C57.4596 52.3554 57.2052 52.25 56.94 52.25H12Z" fill="black"/>
<path d="M26.0001 23.8C27.3432 25.3866 28.0551 27.4121 28.0001 29.49V31.42C28.008 32.3688 28.389 33.2763 29.0609 33.9463C29.7327 34.6163 30.6413 34.9948 31.5901 35C32.1205 35.0934 32.6648 35.0718 33.1862 34.9366C33.7075 34.8013 34.1937 34.5557 34.6119 34.2162C35.03 33.8767 35.3704 33.4514 35.6099 32.969C35.8494 32.4866 35.9825 31.9584 36.0001 31.42C35.8801 28.59 36.0901 26.07 38.1201 23.66C41.7901 19.34 39.3601 12.07 33.7001 11C26.4001 9.39004 21.1401 18.12 26.0001 23.8ZM34.0001 31.42C33.9923 31.8384 33.822 32.2373 33.5252 32.5322C33.2284 32.8271 32.8285 32.9949 32.4101 33H31.5901C31.1717 32.9949 30.7718 32.8271 30.475 32.5322C30.1782 32.2373 30.0079 31.8384 30.0001 31.42V30.49H34.0001V31.42Z" fill="black"/>
<path d="M32 8.72993C32.2652 8.72993 32.5196 8.62457 32.7071 8.43704C32.8946 8.2495 33 7.99515 33 7.72993V4.67993C33 4.41471 32.8946 4.16036 32.7071 3.97282C32.5196 3.78529 32.2652 3.67993 32 3.67993C31.7348 3.67993 31.4804 3.78529 31.2929 3.97282C31.1054 4.16036 31 4.41471 31 4.67993V7.72993C31 7.99515 31.1054 8.2495 31.2929 8.43704C31.4804 8.62457 31.7348 8.72993 32 8.72993Z" fill="black"/>
<path d="M40.05 12.0699C40.1816 12.0706 40.3121 12.0454 40.4339 11.9956C40.5557 11.9459 40.6666 11.8725 40.76 11.7799L42.92 9.61985C43.1083 9.43155 43.2141 9.17615 43.2141 8.90985C43.2141 8.64355 43.1083 8.38816 42.92 8.19985C42.7317 8.01155 42.4763 7.90576 42.21 7.90576C41.9437 7.90576 41.6883 8.01155 41.5 8.19985L39.34 10.3599C39.199 10.4997 39.1028 10.6784 39.0637 10.8732C39.0247 11.0679 39.0445 11.2699 39.1206 11.4533C39.1968 11.6368 39.3259 11.7934 39.4914 11.9032C39.6569 12.013 39.8514 12.071 40.05 12.0699V12.0699Z" fill="black"/>
<path d="M42.3899 19.1199C42.3899 19.3851 42.4952 19.6394 42.6828 19.827C42.8703 20.0145 43.1247 20.1199 43.3899 20.1199H46.3899C46.6551 20.1199 46.9095 20.0145 47.097 19.827C47.2845 19.6394 47.3899 19.3851 47.3899 19.1199C47.3899 18.8547 47.2845 18.6003 47.097 18.4128C46.9095 18.2252 46.6551 18.1199 46.3899 18.1199H43.3899C43.1247 18.1199 42.8703 18.2252 42.6828 18.4128C42.4952 18.6003 42.3899 18.8547 42.3899 19.1199Z" fill="black"/>
<path d="M41.5001 29.9998C41.6884 30.1881 41.9437 30.2939 42.2101 30.2939C42.4764 30.2939 42.7317 30.1881 42.9201 29.9998C43.1084 29.8115 43.2141 29.5561 43.2141 29.2898C43.2141 29.0235 43.1084 28.7681 42.9201 28.5798L40.7601 26.4298C40.6671 26.3361 40.5565 26.2617 40.4346 26.2109C40.3128 26.1602 40.1821 26.134 40.0501 26.134C39.918 26.134 39.7873 26.1602 39.6655 26.2109C39.5436 26.2617 39.433 26.3361 39.3401 26.4298C38.4301 27.4298 39.8501 28.2598 40.4201 28.9198L41.5001 29.9998Z" fill="black"/>
<path d="M23.24 26.4699L21.08 28.6199C20.939 28.7598 20.8428 28.9385 20.8037 29.1332C20.7646 29.328 20.7845 29.53 20.8606 29.7134C20.9368 29.8968 21.0659 30.0535 21.2314 30.1633C21.3969 30.2731 21.5914 30.3311 21.79 30.3299C21.9245 30.3255 22.0566 30.294 22.1786 30.2373C22.3006 30.1806 22.4099 30.0999 22.5 29.9999L24.66 27.8399C24.7944 27.6449 24.8552 27.4084 24.8316 27.1727C24.808 26.937 24.7014 26.7173 24.5309 26.5528C24.3604 26.3883 24.1371 26.2897 23.9007 26.2745C23.6642 26.2593 23.4301 26.3286 23.24 26.4699Z" fill="black"/>
<path d="M17.5601 20.1199H20.6101C20.8753 20.1199 21.1296 20.0145 21.3172 19.827C21.5047 19.6394 21.6101 19.3851 21.6101 19.1199C21.6101 18.8547 21.5047 18.6003 21.3172 18.4128C21.1296 18.2252 20.8753 18.1199 20.6101 18.1199H17.5601C17.2948 18.1199 17.0405 18.2252 16.853 18.4128C16.6654 18.6003 16.5601 18.8547 16.5601 19.1199C16.5601 19.3851 16.6654 19.6394 16.853 19.827C17.0405 20.0145 17.2948 20.1199 17.5601 20.1199Z" fill="black"/>
<path d="M23.24 11.7799C23.4283 11.9682 23.6837 12.0739 23.95 12.0739C24.2163 12.0739 24.4717 11.9682 24.66 11.7799C24.8483 11.5915 24.9541 11.3362 24.9541 11.0699C24.9541 10.8036 24.8483 10.5482 24.66 10.3599L23.58 9.27985L22.5 8.19985C22.3117 8.01155 22.0563 7.90576 21.79 7.90576C21.5237 7.90576 21.2683 8.01155 21.08 8.19985C20.8917 8.38816 20.7859 8.64355 20.7859 8.90985C20.7859 9.17615 20.8917 9.43155 21.08 9.61985L23.24 11.7799Z" fill="black"/>
</svg>
